<svg width="170" height="46" viewBox="0 0 170 46" fill="none" xmlns="http://www.w3.org/2000/svg">
<g clip-path="url(#clip0_0_1)">
<path d="M44.7091 22.7284C44.7091 34.7225 35.077 44.4568 23.2091 44.4568C11.3411 44.4568 1.70907 34.7225 1.70907 22.7284C1.70907 10.7343 11.3411 1 23.2091 1C35.077 1 44.7091 10.7343 44.7091 22.7284Z" fill="url(#paint0_radial_0_1)"/>
<path d="M26.6134 13.3691C26.177 12.0608 24.7738 11.3576 23.4791 11.7987C22.1845 12.2397 21.4888 13.6579 21.9252 14.9662L27.6834 32.2305C28.1198 33.5389 29.5231 34.242 30.8177 33.801C32.1123 33.36 32.808 31.9418 32.3717 30.6334L26.6134 13.3691Z" fill="white"/>
<path d="M17.6687 16.4162C17.2323 15.1079 15.829 14.4047 14.5344 14.8458C13.2397 15.2868 12.544 16.705 12.9804 18.0133L16.0885 27.3321C16.5249 28.6405 17.9282 29.3436 19.2228 28.9026C20.5174 28.4615 21.2132 27.0434 20.7768 25.735L17.6687 16.4162Z" fill="white"/>
<path d="M57.636 30.147C56.558 30.147 55.592 29.972 54.738 29.622C53.884 29.272 53.198 28.754 52.68 28.068C52.176 27.382 51.91 26.556 51.882 25.59H55.704C55.76 26.136 55.949 26.556 56.271 26.85C56.593 27.13 57.013 27.27 57.531 27.27C58.063 27.27 58.483 27.151 58.791 26.913C59.099 26.661 59.253 26.318 59.253 25.884C59.253 25.52 59.127 25.219 58.875 24.981C58.637 24.743 58.336 24.547 57.972 24.393C57.622 24.239 57.118 24.064 56.46 23.868C55.508 23.574 54.731 23.28 54.129 22.986C53.527 22.692 53.009 22.258 52.575 21.684C52.141 21.11 51.924 20.361 51.924 19.437C51.924 18.065 52.421 16.994 53.415 16.224C54.409 15.44 55.704 15.048 57.3 15.048C58.924 15.048 60.233 15.44 61.227 16.224C62.221 16.994 62.753 18.072 62.823 19.458H58.938C58.91 18.982 58.735 18.611 58.413 18.345C58.091 18.065 57.678 17.925 57.174 17.925C56.74 17.925 56.39 18.044 56.124 18.282C55.858 18.506 55.725 18.835 55.725 19.269C55.725 19.745 55.949 20.116 56.397 20.382C56.845 20.648 57.545 20.935 58.497 21.243C59.449 21.565 60.219 21.873 60.807 22.167C61.409 22.461 61.927 22.888 62.361 23.448C62.795 24.008 63.012 24.729 63.012 25.611C63.012 26.451 62.795 27.214 62.361 27.9C61.941 28.586 61.325 29.132 60.513 29.538C59.701 29.944 58.742 30.147 57.636 30.147ZM75.8269 15.258V18.135H71.9209V30H68.3299V18.135H64.4239V15.258H75.8269ZM85.1471 30L82.0811 24.435H81.2201V30H77.6291V15.258H83.6561C84.8181 15.258 85.8051 15.461 86.6171 15.867C87.4431 16.273 88.0591 16.833 88.4651 17.547C88.8711 18.247 89.0741 19.031 89.0741 19.899C89.0741 20.879 88.7941 21.754 88.2341 22.524C87.6881 23.294 86.8761 23.84 85.7981 24.162L89.2001 30H85.1471ZM81.2201 21.894H83.4461C84.1041 21.894 84.5941 21.733 84.9161 21.411C85.2521 21.089 85.4201 20.634 85.4201 20.046C85.4201 19.486 85.2521 19.045 84.9161 18.723C84.5941 18.401 84.1041 18.24 83.4461 18.24H81.2201V21.894ZM94.9194 18.135V21.117H99.7284V23.889H94.9194V27.123H100.358V30H91.3284V15.258H100.358V18.135H94.9194ZM111.867 27.396H106.365L105.483 30H101.724L107.058 15.258H111.216L116.55 30H112.749L111.867 27.396ZM110.943 24.624L109.116 19.227L107.31 24.624H110.943ZM134.868 15.258V30H131.277V21.159L127.98 30H125.082L121.764 21.138V30H118.173V15.258H122.415L126.552 25.464L130.647 15.258H134.868ZM141.041 15.258V30H137.45V15.258H141.041ZM153.241 15.258V18.135H147.235V21.243H151.729V24.036H147.235V30H143.644V15.258H153.241ZM158.719 15.258V30H155.128V15.258H158.719Z" fill="white"/>
</g>
<defs>
<radialGradient id="paint0_radial_0_1" cx="0" cy="0" r="1" gradientUnits="userSpaceOnUse" gradientTransform="translate(6.63685 0.982614) rotate(48.7949) scale(57.8073 57.7298)">
<stop stop-color="#2F82FF"/>
<stop offset="1" stop-color="#02F0FF"/>
</radialGradient>
<clipPath id="clip0_0_1">
<rect width="170" height="46" fill="white"/>
</clipPath>
</defs>
</svg>
